<svg id="Layer_1" data-name="Layer 1" xmlns="http://www.w3.org/2000/svg" xmlns:xlink="http://www.w3.org/1999/xlink" viewBox="0 0 299.93 115.37"><defs><style>.cls-1{fill:none;}.cls-2{fill:#5c33f6;}.cls-3{fill:#fff;}.cls-4{clip-path:url(#clip-path);}</style><clipPath id="clip-path"><path id="_Icon-Color" data-name="Icon-Color" class="cls-1" d="M30.82,51.65c0,11.23,13.9,24.71,18.77,30.6a2.67,2.67,0,0,0,4.12,0c4.9-5.9,18.86-19.37,18.8-30.6-.05-10.42-9.1-20.85-20.85-20.85S30.82,41.23,30.82,51.65Z"/></clipPath></defs><title>TaxiHub New logo</title><path class="cls-2" d="M82.71,40.62v6h8.35v26h6.12v-26h8.3v-6Z"/><path class="cls-2" d="M123.33,40.62h-7.62l-11,32h6.89l1.8-5.42h12.24l1.8,5.42h6.89Zm-8.26,20.61,4.45-13.78L124,61.23Z"/><path class="cls-2" d="M153.58,56.19l9.72-15.57H156l-6.46,11-6.55-11h-7.23l9.71,15.62L135.09,72.66h7.24l7.19-11.72,7.15,11.72h7.27Z"/><path class="cls-2" d="M173.61,44.3s0,0,0,0a2.36,2.36,0,0,1-.19.25c-.12.17-.25.33-.38.49s-.31.37-.46.55-.45.52-.65.76l-.75.84-.44.5-.43-.5-.22-.25c-.15-.18-.31-.36-.51-.56a25.17,25.17,0,0,1-1.86-2.28V72.66h6.07V44.06Z"/><path d="M200.06,40.62V53.21H186.58V40.62H180.5v32h6.08V59.17h13.48V72.66h6.12v-32Z"/><path d="M232.41,40.62v19c0,4.46-2.26,7.54-6.67,7.54S219,64.11,219,59.65v-19h-6.17V59.84c0,7.92,4.2,13.4,12.89,13.4s12.88-5.48,12.88-13.4V40.62Z"/><path d="M263.65,56.14c2.7-.63,4.93-3.36,4.93-7.35,0-4.28-2.79-8.17-8.22-8.17h-15v32h15.49c5.48,0,8.3-3.84,8.3-8.69C269.13,60,266.74,56.67,263.65,56.14Zm-12.24-9.51H259A3.16,3.16,0,0,1,262.37,50,3.11,3.11,0,0,1,259,53.35h-7.62Zm7.88,20h-7.88v-7.3h7.88A3.44,3.44,0,0,1,262.93,63,3.35,3.35,0,0,1,259.29,66.66Z"/><g id="Logo_new" data-name="Logo new"><path class="cls-2" d="M57.17,78.29c6.05-6.82,15.33-17.49,15.33-26.66,0-10.42-9-20.85-20.85-20.85S30.8,41.21,30.8,51.63c0,9.24,9.41,20,15.47,26.8l5.39,6.16,2.06-2.35h0l3.45-3.94Z"/><g id="car"><rect class="cls-3" x="41.75" y="49.02" width="19.56" height="11.43" rx="2.44" ry="2.44" transform="translate(49.27 129.86) rotate(-135)"/><path class="cls-2" d="M52.57,60.16l.1.76a.52.52,0,0,0,.9.26l4.4-4.4a.52.52,0,0,0-.25-.9L57,55.77a1.29,1.29,0,0,0-1.09.38L53,59.09A1.29,1.29,0,0,0,52.57,60.16Z"/><path class="cls-2" d="M47.07,54.66l-.76-.1a.52.52,0,0,1-.26-.9l4.4-4.4a.52.52,0,0,1,.9.25l.11.73a1.29,1.29,0,0,1-.38,1.09l-2.95,2.95A1.29,1.29,0,0,1,47.07,54.66Z"/><path class="cls-2" d="M52.79,51.3l3.13,3.13c.34.34,1.49.94,1.83.6h0a.42.42,0,0,0,0-.59l-5-5a.42.42,0,0,0-.59,0h0C51.85,49.81,52.45,51,52.79,51.3Z"/><path class="cls-2" d="M48,56.08l3.13,3.13c.34.34.94,1.49.6,1.83h0a.42.42,0,0,1-.59,0l-5-5a.42.42,0,0,1,0-.59h0C46.54,55.14,47.69,55.74,48,56.08Z"/><g id="smoke"><g class="cls-4"><path class="cls-3" d="M61.87,60.39a.9.9,0,0,1,1.28,0l4.4,4.4a.9.9,0,0,1,0,1.28c-.35.35-.4.9-.75.55l-4.93-5A.91.91,0,0,1,61.87,60.39Z"/><path class="cls-3" d="M56.85,65.41a.9.9,0,0,1,1.28,0l6,6a.91.91,0,0,1-1.28,1.28l-6-6A.91.91,0,0,1,56.85,65.41Z"/></g></g></g></g><g id="Logo_new-2" data-name="Logo new"><path class="cls-3" d="M167.74,40.88a2.94,2.94,0,0,0,.17.63A2.11,2.11,0,0,1,167.74,40.88Z"/><path class="cls-3" d="M173.27,42.11a.41.41,0,0,0,0-.09l0,.07a1.12,1.12,0,0,1-.12.21l-.11.19,0,.06-.21.3c.08-.12.17-.24.24-.36Z"/><path class="cls-3" d="M173.32,42a4,4,0,0,0,.25-.56,1.58,1.58,0,0,1-.1.28c0,.09-.09.19-.14.28Z"/><path class="cls-3" d="M173.75,40.62a1.25,1.25,0,0,1,0,.27h0a.28.28,0,0,1,0,.09,1.36,1.36,0,0,1,0,.17.08.08,0,0,0,0,0,.81.81,0,0,1-.08.25l0-.1a1.69,1.69,0,0,0,.1-.37,2.45,2.45,0,0,0,0-.37Z"/></g><g id="Logo_new-3" data-name="Logo new"><path class="cls-2" d="M173.74,40.62a2.45,2.45,0,0,1,0,.37,1.69,1.69,0,0,1-.1.37l0,.1a4,4,0,0,1-.25.56.41.41,0,0,1,0,.09l-.22.38c-.07.12-.16.24-.24.36s-.35.48-.53.7l-.31.37-.44.51L171,45l-.3.34-.29-.34-.15-.17-.34-.38a10.42,10.42,0,0,1-2-2.94,2.94,2.94,0,0,1-.17-.63,2.11,2.11,0,0,1,0-.26Z"/><path class="cls-2" d="M173.74,40.57v.05h-6v-.05a3.09,3.09,0,0,1,3-3,2.92,2.92,0,0,1,1.52.43,4.56,4.56,0,0,1,.42.31l.21.2a3.17,3.17,0,0,1,.73,1.23,2.65,2.65,0,0,1,.12.56A2.53,2.53,0,0,1,173.74,40.57Z"/><path class="cls-2" d="M167.91,41.51a2.11,2.11,0,0,1-.17-.63A2.94,2.94,0,0,0,167.91,41.51Z"/><path class="cls-2" d="M172.67,38.3a3,3,0,0,0-1.94-.74,3.09,3.09,0,0,0-3,3v.05h0v-.05a3.1,3.1,0,0,1,3-3A2.89,2.89,0,0,1,172.67,38.3Z"/><g id="car-2" data-name="car"><g id="smoke-2" data-name="smoke"><path id="_Icon-Color-2" data-name="Icon-Color" class="cls-2" d="M167.72,40.57c0,1.62,2,3.57,2.72,4.43a.39.39,0,0,0,.6,0c.71-.85,2.73-2.8,2.72-4.43a3,3,0,1,0-6,0Z"/></g></g></g><circle class="cls-3" cx="170.74" cy="40.5" r="1.66"/></svg>